<svg class="animated" id="freepik_stories-movie-night" xmlns="http://www.w3.org/2000/svg" viewBox="0 0 500 500" version="1.1"><style>@keyframes slideRight{0%{opacity:0;transform:translateX(30px)}}@keyframes zoomOut{0%{opacity:0;transform:scale(1.5)}}@keyframes slideDown{0%{opacity:0;transform:translateY(-30px)}}@keyframes slideLeft{0%{opacity:0;transform:translateX(-30px)}}svg#freepik_stories-movie-night:not(.animated) .animable{opacity:0}</style><g id="freepik--background-simple--inject-1--inject-31" class="animable" style="transform-origin:250.89px 244.734px;animation:1s 1 forwards cubic-bezier(.36,-.01,.5,1.38) slideRight;animation-delay:0s"><path style="transform-origin:323.77px 216.015px" id="ele95ugqhy3la" class="animable" fill="#62dafc" d="M295.94 188.01h55.66v56.01h-55.66z"/><path d="M351.61 131.29v-22.07a43.07 43.07 0 00-14.36 4.57c-10.47 5.76-21.23 12.19-32.4 17.5z" style="transform-origin:328.23px 120.255px" id="elxnh1ulbwcoa" class="animable" fill="#62dafc"/><path style="transform-origin:385.565px 159.645px" id="elzh4ji57on5k" class="animable" fill="#62dafc" d="M358.61 138.29h53.91V181h-53.91z"/><path style="transform-origin:385.565px 216.015px" id="eldbfqo1f593" class="animable" fill="#62dafc" d="M358.61 188.01h53.91v56.01h-53.91z"/><path style="transform-origin:323.77px 159.645px" id="eltmb4jiej13g" class="animable" fill="#62dafc" d="M295.94 138.29h55.66V181h-55.66z"/><path d="M358.61 131.29h53.91v-5.9c-17.36-12.28-37.44-17.45-53.91-16.82z" style="transform-origin:385.565px 119.904px" id="el5ipy0ccdsrs" class="animable" fill="#62dafc"/><path d="M430.38 329.44S464 253.82 450 184.51c-4.81-23.8-16.3-41.41-30.46-53.65V251h-130.6V138.29h-.35v-.36a83.45 83.45 0 01-26.26 4.57c-27.3 0-44.81-20.31-100.12-39.21s-104.33 27.3-112.73 80.52S83.09 289.53 81.69 321s-11.41 69.49-11.41 69.49h366.4s-13.31-24.64-6.3-61.05zm-236-123.23H120.9v-88.92h73.52zm60.53 7.7h-48.59V155.1H255z" style="transform-origin:250.89px 244.734px" id="elxsgnjiwa5v" class="animable" fill="#62dafc"/><path style="transform-origin:157.65px 161.75px" id="el9m2d639bbvd" class="animable" fill="#62dafc" d="M127.26 124.99h60.78v73.52h-60.78z"/><path style="transform-origin:230.63px 184.505px" id="elrp0y9pzto6o" class="animable" fill="#62dafc" d="M210.53 160.19h40.2v48.63h-40.2z"/><g id="elqt9hlnpilud"><g style="transform-origin:250.89px 244.734px" class="animable" id="elnwb210u5svo" opacity=".7"><path style="transform-origin:323.77px 216.015px" id="elyezlz6lfaet" class="animable" fill="#fff" d="M295.94 188.01h55.66v56.01h-55.66z"/><path d="M351.61 131.29v-22.07a43.07 43.07 0 00-14.36 4.57c-10.47 5.76-21.23 12.19-32.4 17.5z" style="transform-origin:328.23px 120.255px" id="ele29t9onf35m" class="animable" fill="#fff"/><path style="transform-origin:385.565px 159.645px" id="elsako5ctm9z" class="animable" fill="#fff" d="M358.61 138.29h53.91V181h-53.91z"/><path style="transform-origin:385.565px 216.015px" id="elbebgrrk2bga" class="animable" fill="#fff" d="M358.61 188.01h53.91v56.01h-53.91z"/><path style="transform-origin:323.77px 159.645px" id="el8s8nzkehaql" class="animable" fill="#fff" d="M295.94 138.29h55.66V181h-55.66z"/><path d="M358.61 131.29h53.91v-5.9c-17.36-12.28-37.44-17.45-53.91-16.82z" style="transform-origin:385.565px 119.904px" id="elyydz522crgr" class="animable" fill="#fff"/><path d="M430.38 329.44S464 253.82 450 184.51c-4.81-23.8-16.3-41.41-30.46-53.65V251h-130.6V138.29h-.35v-.36a83.45 83.45 0 01-26.26 4.57c-27.3 0-44.81-20.31-100.12-39.21s-104.33 27.3-112.73 80.52S83.09 289.53 81.69 321s-11.41 69.49-11.41 69.49h366.4s-13.31-24.64-6.3-61.05zm-236-123.23H120.9v-88.92h73.52zm60.53 7.7h-48.59V155.1H255z" style="transform-origin:250.89px 244.734px" id="eldotias88grg" class="animable" fill="#fff"/><path style="transform-origin:157.65px 161.75px" id="elxxzjw8u7moq" class="animable" fill="#fff" d="M127.26 124.99h60.78v73.52h-60.78z"/><path style="transform-origin:230.63px 184.505px" id="el0wl4jtj7s4r" class="animable" fill="#fff" d="M210.53 160.19h40.2v48.63h-40.2z"/></g></g></g><g id="freepik--Shadow--inject-1--inject-31" class="animable" style="transform-origin:262px 389px;animation:1s 1 forwards cubic-bezier(.36,-.01,.5,1.38) slideRight;animation-delay:0s"><ellipse cx="262" cy="389" rx="205" ry="5.33" style="transform-origin:262px 389px" id="elbw0j636mzdh" class="animable" fill="#2e353a"/></g><g id="freepik--Plants--inject-1--inject-31" class="animable" style="transform-origin:443.645px 307.36px;animation:1s 1 forwards cubic-bezier(.36,-.01,.5,1.38) zoomOut;animation-delay:0s"><path d="M455.86 328.89c-3.39-4.07-5-4.11-5.66-3.8v-6.56c2.35 2 4.4 3.69 4.4 3.69a27.58 27.58 0 00-4.62-9.73c-.14-2.48-.33-5-.6-7.42-.2-1.81-.36-3.65-.51-5.49.81 3.21 1.6 6.76 4.14 9.3a70.4 70.4 0 016 7.31s-1.91-8.26-5.72-11.75a21.24 21.24 0 01-4.51-5.49c-.3-4.06-.49-8.16-.59-12.18a39.1 39.1 0 000-5.2l-.11.14v-1.86a16.43 16.43 0 007.46 13.15s0-7.62-3.49-12.07-3.81-3.49-3.81-3.49c-.07.59-.11 1.17-.12 1.72 0-5.64.13-10.91.32-15.44a8.93 8.93 0 002 4.83c3.18 3.49 6.35 3.49 6.35 3.49s-1.27-7.3-3.49-9.53a31.13 31.13 0 00-4.64-3.73c.33-6 .68-9.85.69-10a.46.46 0 00-.42-.51.48.48 0 00-.51.42c0 .2-1.2 13-1.26 29a33.9 33.9 0 00-2.12-7.58c-1.9-3.82-5.08-3.5-5.08-3.5a3.12 3.12 0 00-.4-.05c-.38-8.76-.55-16.7-.6-23.27 1.4 4.16 7.67 12.52 7.67 12.52s0-11.75-2.54-13.34a6.1 6.1 0 00-5.14-.41v-7.48l.39-.05-.39-.26c0-6.19.17-9.87.17-10a.46.46 0 00-.45-.48.47.47 0 00-.49.45c0 .1-.12 3.57-.16 9.43-1.34-.75-3.44-1.66-5-1.06-2.54 1-4.13 11.75-4.13 11.75s4.28-8 9.16-9.59c0 6.33 0 15.15.38 25.42-1.13-.15-5.1-.48-7 2-2.23 2.85-5.4 12.7-5.4 12.7l12.4-14.27q.1 3 .24 6.16c-.27.3-.16.88.07 1.56.32 6.65.75 13.75 1.36 21a47 47 0 00-4.86 6.46c-3.5 5.4-3.81 13.66-3.81 13.66s7.86-8.18 9.41-11.81c.63 7.33 1.11 14.21 1.47 20.5a20.26 20.26 0 01-3.58 5.92c-3.18 3.81-3.18 12.39-3.18 12.39s6-2.8 7.09-12.07c.94 19.73.7 32.27.69 32.45a.47.47 0 00.46.48.46.46 0 00.47-.46c0-.22.39-19.79-1.65-48.56a10.4 10.4 0 00.87 3.38c.62 1.23 3.23 3.71 5.76 5.95.07 2.73.07 5.42 0 8.05a7.13 7.13 0 00-2.28 4.11 94.13 94.13 0 00-1.59 10.48 14.43 14.43 0 003.56-6.37 225.32 225.32 0 01-2.78 25.14.48.48 0 00.38.55h.09a.47.47 0 00.46-.39 232.9 232.9 0 003.1-33.2c.59 1 1.86 3.13 3.46 5.41 2.22 3.18 7.62 7.94 7.62 7.94s-.63-4.74-5.4-10.46zm-8.26-18.74c-5.08-3.81-5.08-5.08-5.08-5.08a18.27 18.27 0 000 1.87c-.29-4-.63-8.16-1-12.46a23.22 23.22 0 00-.5-5.74c-.47-5.72-.83-11.29-1.12-16.63 1 2.34 5.33 8.27 7.35 11v.11a30.13 30.13 0 00-2.47 6.33 14.17 14.17 0 00.64 9.85 38.73 38.73 0 002.09-7.11c.2 4.32.51 8.68 1 12.92q.33 3.09.52 6.19a13.06 13.06 0 00-1.43-1.25z" style="transform-origin:443.645px 291.69px" id="ele5nd7lev0vs" class="animable" fill="#2e353a"/><path style="transform-origin:445.38px 372.085px" id="elzkxgj4eqxw" class="animable" fill="#2e353a" d="M453.75 390.93H437l-3.58-37.69h23.92l-3.59 37.69z"/></g><g id="freepik--Character--inject-1--inject-31" class="animable" style="transform-origin:340.848px 293.298px;animation:1s 1 forwards cubic-bezier(.36,-.01,.5,1.38) slideDown;animation-delay:0s"><path d="M302.1 259.2v36.41H260a17.06 17.06 0 00-17.07 17.06h0A17.07 17.07 0 00260 329.74h0a3.74 3.74 0 013.74 3.74v57H344V259.2a21 21 0 00-20.8-21h0a21 21 0 00-21.1 21z" style="transform-origin:293.465px 314.34px" id="elpl9e9nc8r0d" class="animable" fill="#62dafc" stroke="#2e353a" stroke-miterlimit="10"/><path d="M315.43 259.2v36.41h-42.1a17.06 17.06 0 00-17.07 17.06h0a17.07 17.07 0 0017.07 17.07h0a3.74 3.74 0 013.74 3.74v57h80.29V259.2a21 21 0 00-20.8-21h0a21 21 0 00-21.13 21z" style="transform-origin:306.81px 314.34px" id="elpoinzrtwy4o" class="animable" fill="#62dafc" stroke="#2e353a" stroke-miterlimit="10"/><path d="M326.5 320l-16.5 3s-.5 8.5-3.5 14a17.66 17.66 0 01-9 7.5l-4 18.5s9.5 22 9.5 24.5-3.5 3-3.5 3h-20V314H329z" style="transform-origin:304.25px 352.25px" id="elmna6ukp9heq" class="animable" fill="#2e353a"/><path d="M308.6 306.08v-47.71c0-11.21 9.41-20.3 21-20.3h87c11.6 0 21 9.09 21 20.3v55.77H327.27z" style="transform-origin:373.1px 276.105px" id="el2eohwpc0kid" class="animable" fill="#62dafc" stroke="#2e353a" stroke-miterlimit="10"/><path d="M380.73 238.06l-1.84 7.7 11.11 3.39s4.59 1.65 6.47 5.85 3.08 13.24 3.08 13.24l.31 8.62V294h-36l4.92-47.6 4.62-8z" style="transform-origin:381.86px 266.03px" id="elyhf2o5n3qqi" class="animable" fill="#2e353a"/><path d="M351.19 342.74a409.1 409.1 0 01-43.19 1.95c-21.78-.32-34.78-2.6-34.78-2.6" style="transform-origin:312.205px 343.396px" id="el821aiyk6dy" class="animable" fill="none" stroke="#2e353a" stroke-miterlimit="10"/><path d="M346.47 247.9s-39.74 21.46-41.69 24.1-3.17 8 3.66 8.53 32.67-9.26 32.67-9.26z" style="transform-origin:324.861px 264.225px" id="el6r8xk5mru0t" class="animable" fill="#fff"/><g style="transform-origin:328.82px 266.984px" id="elkjv6lrvh0u" class="animable" clip-path="url(#freepik--clip-path--inject-1--inject-31)"><path d="M343.06 257l-3.53 6.21-3.42-6.16 1.8 8.76-2.54-.09 1.1 2.68-21.89 8.4s7.18.83 12.65-1.2 10.38-3.34 10.38-3.34z" style="transform-origin:328.82px 266.984px" id="elost7gmtu0t" class="animable" fill="#62dafc"/><g id="eljc8kn8hbgho"><path d="M343.06 257l-3.53 6.21-3.42-6.16 1.8 8.76-2.54-.09 1.1 2.68-21.89 8.4s7.18.83 12.65-1.2 10.38-3.34 10.38-3.34z" style="mix-blend-mode:multiply;transform-origin:328.82px 266.984px" class="animable" id="elx0txcgnrvik" opacity=".3"/></g></g><path d="M346.47 247.9s-39.74 21.46-41.69 24.1-3.17 8 3.66 8.53 32.67-9.26 32.67-9.26z" style="transform-origin:324.861px 264.225px" id="ellaug98uv49j" class="animable" fill="none" stroke="#2e353a" stroke-linecap="round" stroke-linejoin="round"/><path d="M335.35 226.75a19.76 19.76 0 005.36-3.17c1.71-1.71 2.44-.24 2.44.73s.49 3.42-1.95 4.39-5.85.49-5.85-1.95z" style="transform-origin:339.27px 225.981px" id="elzldsety9z0f" class="animable" fill="#fff" stroke="#2e353a" stroke-linecap="round" stroke-linejoin="round"/><path d="M329.82 229.08a21.44 21.44 0 013.48-2.5c1-.36 7.06-2.1 8.41-1.48s3.14 3.33 3.69 4.41.18 2.65-1 2.59-4.19-3.58-4.19-3.58l-5 1.66s-2.07.92-3.08.33-2.04-.25-2.31-1.43z" style="transform-origin:337.735px 228.535px" id="elj7qbifkgfpp" class="animable" fill="#fff" stroke="#2e353a" stroke-linecap="round" stroke-linejoin="round"/><path d="M330.11 227.42s2.28-.86 2.94-.35a14.46 14.46 0 004 1.78c2.09.67 4.42 1.44 4.92 3s-2 3.93-2 3.93a73 73 0 00-6.86-4.18c-2.11-1.06-5.53-3.45-3-4.18z" style="transform-origin:335.625px 231.344px" id="eluk5k4rojora" class="animable" fill="#fff" stroke="#2e353a" stroke-linecap="round" stroke-linejoin="round"/><path d="M334.1 230.09l-2.2-1.6s-2-1.56-3-.34c0 0-3.17 11.95-3.66 13.41s-23.87 23.44-25.09 28.28a7.76 7.76 0 005.36 9.27c2.93.73 6.83-7.07 8.53-11s15.12-24.38 15.12-24.38a3.87 3.87 0 002.44 0 11.18 11.18 0 002.44-2.44l2.44-1c1.21-.48 4.14-5.36 4.38-6.09a.65.65 0 000-.22c-1.68-2.19-6.76-3.89-6.76-3.89z" style="transform-origin:320.401px 253.421px" id="eloii6kyujrwk" class="animable" fill="#fff"/><g style="transform-origin:316.232px 261.444px" id="elzt30ebe8q08" class="animable" clip-path="url(#freepik--clip-path-2--inject-1--inject-31)"><path d="M303.59 278.25a6.74 6.74 0 001.92.86c2.93.73 6.83-7.07 8.53-11s15.12-24.38 15.12-24.38-25.06 28-25.78 32a4.92 4.92 0 00.21 2.52z" style="mix-blend-mode:multiply;transform-origin:316.232px 261.444px" id="elo6hzmot601" class="animable" fill="#62dafc"/><g id="elytst1jak3jg"><path d="M303.59 278.25a6.74 6.74 0 001.92.86c2.93.73 6.83-7.07 8.53-11s15.12-24.38 15.12-24.38-25.06 28-25.78 32a4.92 4.92 0 00.21 2.52z" style="mix-blend-mode:multiply;transform-origin:316.232px 261.444px" class="animable" id="elno1hmxlxj2" opacity=".3"/></g></g><path d="M334.1 230.09l-2.2-1.6s-2-1.56-3-.34c0 0-3.17 11.95-3.66 13.41s-23.87 23.44-25.09 28.28a7.76 7.76 0 005.36 9.27c2.93.73 6.83-7.07 8.53-11s15.12-24.38 15.12-24.38a3.87 3.87 0 002.44 0 11.18 11.18 0 002.44-2.44l2.44-1c1.21-.48 4.14-5.36 4.38-6.09a.65.65 0 000-.22c-1.68-2.19-6.76-3.89-6.76-3.89z" style="transform-origin:320.401px 253.421px" id="eltlv3ijfptq" class="animable" fill="none" stroke="#2e353a" stroke-linecap="round" stroke-linejoin="round"/><path d="M331.86 237.64a14.31 14.31 0 003.32.79" style="transform-origin:333.52px 238.035px" id="elhh300oecbl9" class="animable" fill="none" stroke="#2e353a" stroke-linecap="round" stroke-linejoin="round"/><path d="M333.6 238.59s-2 2.61.44 2.73" style="transform-origin:333.434px 239.955px" id="elfdlxkukkt7r" class="animable" fill="none" stroke="#2e353a" stroke-linecap="round" stroke-linejoin="round"/><path d="M330.65 232.15s5.48 2.64 6.43 3.59a2.54 2.54 0 01.8 2.85" style="transform-origin:334.341px 235.37px" id="elqe5l02npswc" class="animable" fill="none" stroke="#2e353a" stroke-linecap="round" stroke-linejoin="round"/><path d="M346.71 231s-1.2 2-.6 2.56 2.4.9 2.55-.45-.15-2.57-1.95-2.11z" style="transform-origin:347.318px 232.476px" id="ellf0w390huq" class="animable" fill="#fff" stroke="#2e353a" stroke-linecap="round" stroke-linejoin="round"/><path d="M289.74 374.38s5.86 8.45 5.86 10.41-10.08 4.55-14.31 4.87-14.3 1.3-18.53.65 0-2.27 4.23-5.2 8.13-3.9 9.1-7.15z" style="transform-origin:278.304px 382.454px" id="ellav8hrcvn" class="animable" fill="#2e353a" stroke="#2e353a" stroke-miterlimit="10"/><path d="M281.29 389.66c4.23-.32 14.31-2.92 14.31-4.87a6.32 6.32 0 00-.76-2.14 49.4 49.4 0 01-18.42 4.74c-6.77.35-11.08.41-13.61.4-2 1.29-2.74 2.11-.05 2.52 4.24.69 14.31-.31 18.53-.65z" style="transform-origin:278.307px 386.599px" id="eledax8m0qk9" class="animable" fill="#fff" stroke="#2e353a" stroke-miterlimit="10"/><path d="M291.7 300.16s-23.09-2-27.64-.65-5.2 7.15-3.9 11.38S276.09 378 276.09 378l13.65-3.58-7.47-47.24z" style="transform-origin:275.634px 338.521px" id="elpy3a8u091c" class="animable" fill="#fff"/><g style="transform-origin:280.408px 317.354px" id="ele42qm5fh89" class="animable" clip-path="url(#freepik--clip-path-3--inject-1--inject-31)"><path d="M287.77 305.14s-9.68-2.34-9.34-.67 1 4.34 1 4.34-5.68-6.68-6.35-2.34 9 24.37 9 24.37z" style="transform-origin:280.408px 317.354px" id="elkb8fq4t5xc" class="animable" fill="#62dafc"/><g id="elnsubjkj4vz"><path d="M287.77 305.14s-9.68-2.34-9.34-.67 1 4.34 1 4.34-5.68-6.68-6.35-2.34 9 24.37 9 24.37z" style="mix-blend-mode:multiply;transform-origin:280.408px 317.354px" class="animable" id="elcvjdl48bw8" opacity=".3"/></g></g><path d="M291.7 300.16s-23.09-2-27.64-.65-5.2 7.15-3.9 11.38S276.09 378 276.09 378l13.65-3.58-7.47-47.24z" style="transform-origin:275.634px 338.521px" id="el2ovvuq1tfic" class="animable" fill="none" stroke="#2e353a" stroke-miterlimit="10"/><path style="transform-origin:279.885px 312.275px" id="el4bbqrufvxmk" class="animable" fill="none" stroke="#2e353a" stroke-linecap="round" stroke-linejoin="round" d="M277.27 308.89l5.23 7.7-.61-8.63"/><path d="M365.73 243.51s-18.53 3.66-19.26 4.39-17.55 49.5-17.55 49.5h43.15s19.75-48 18-49.25-20.68-5.15-24.34-4.64z" style="transform-origin:359.55px 270.432px" id="el0d5nfz1qvn5o" class="animable" fill="#fff" stroke="#2e353a" stroke-linecap="round" stroke-linejoin="round"/><path style="transform-origin:373.405px 277.045px" id="eloars7t8sop" class="animable" fill="#62dafc" d="M380.27 266.03l-.85 1.86-5.42-3.9 3.9 5.43-9.33-.68 6.11 3.9-10 17.46 10.51-1.7 6.94-15.76-1.86-6.61z"/><g id="el5q8pdhw2oyv"><path style="mix-blend-mode:multiply;transform-origin:373.405px 277.045px" class="animable" id="elws072gnvawa" opacity=".3" d="M380.27 266.03l-.85 1.86-5.42-3.9 3.9 5.43-9.33-.68 6.11 3.9-10 17.46 10.51-1.7 6.94-15.76-1.86-6.61z"/></g><path style="transform-origin:376.91px 266.43px" id="elu8za9auc6ib" class="animable" fill="none" stroke="#2e353a" stroke-linecap="round" stroke-linejoin="round" d="M371.68 261.59l10.46 9.68-9.94-1.31"/><path d="M365.73 243.51s-3.8.75-8 1.64c-.92 3.81-2.89 12.32-2.7 14.94.24 3.42 2.92 2.2 5.12 1.71 1.92-.43 12.51-12.53 15.88-17.11-4.54-.82-8.77-1.38-10.3-1.18z" style="transform-origin:365.524px 252.943px" id="eloce7prr6y3k" class="animable" fill="#2e353a" stroke="#2e353a" stroke-linecap="round" stroke-linejoin="round"/><path style="transform-origin:338.395px 288.16px" id="elp3oq3nbmra" class="animable" fill="#2e353a" d="M337.56 277.9h8.38l-6.47 20.52h-8.62l6.71-20.52z"/><path d="M361.59 241.07s-4.88 17.07-3.17 17.32 12.43-11.71 13.41-14.15 4.4-10.49 4.4-10.49-6.84 6.84-14.64 7.32z" style="transform-origin:367.143px 246.072px" id="el6ud25hfu7mv" class="animable" fill="#fff" stroke="#2e353a" stroke-linecap="round" stroke-linejoin="round"/><path d="M371.83 244.24c1-2.43 4.4-10.49 4.4-10.49s-6.84 6.84-14.64 7.32l-.34 1.2c1.23 1 3.52 2.67 4.61 2.91s-1 5.65-2.51 9.29c3.65-3.65 7.88-8.73 8.48-10.23z" style="mix-blend-mode:multiply;transform-origin:368.74px 244.11px" id="elvmocwvf977" class="animable" fill="#62dafc"/><g id="el1kudgm68sg6"><path d="M371.83 244.24c1-2.43 4.4-10.49 4.4-10.49s-6.84 6.84-14.64 7.32l-.34 1.2c1.23 1 3.52 2.67 4.61 2.91s-1 5.65-2.51 9.29c3.65-3.65 7.88-8.73 8.48-10.23z" style="mix-blend-mode:multiply;transform-origin:368.74px 244.11px" class="animable" id="el4eblykgstpt" opacity=".3"/></g><path d="M354.37 213.66s-10.63 1.18-12.11-5.61 4.74-8.05 8.57-5c2.93 2.32-2.07-4.43 2.06-6.79s4.73.59 9.46 1.48 6.79-.59 14.17-.59 8.28 7.68 8.28 12.4-2.66 16.84-2.66 16.84-4.43 1.18-7.68 0-7.09-5-5.91-7.38-1.77-3.55-4.73-3.55-9.45-1.8-9.45-1.8z" style="transform-origin:363.418px 211.139px" id="el4gfrphakwgh" class="animable" fill="#2e353a" stroke="#2e353a" stroke-linecap="round" stroke-linejoin="round"/><path d="M368.44 211.15a42.43 42.43 0 005.59-1.07c8.11-2.09 10.72 1.31 10.72 1.31" style="transform-origin:376.595px 210.395px" id="eljhzwupwqzy" class="animable" fill="none" stroke="#fff" stroke-linecap="round" stroke-linejoin="round" stroke-width=".75"/><path d="M361.22 211.13a17 17 0 003.14.26" style="transform-origin:362.79px 211.26px" id="elaixw316ne4d" class="animable" fill="none" stroke="#fff" stroke-linecap="round" stroke-linejoin="round" stroke-width=".75"/><path d="M375.34 214.53s5.49-.53 8.1 2.35" style="transform-origin:379.39px 215.686px" id="elliu19mbqoh" class="animable" fill="none" stroke="#fff" stroke-linecap="round" stroke-linejoin="round" stroke-width=".75"/><path d="M308.37 276.83a1.29 1.29 0 11-1.29-1.29 1.29 1.29 0 011.29 1.29z" style="transform-origin:307.08px 276.83px" id="elnseoxk2ybdr" class="animable" fill="#fff" stroke="#2e353a" stroke-miterlimit="10" stroke-width=".5"/><circle cx="309.1" cy="275.6" r="1.62" style="transform-origin:309.1px 275.6px" id="elwon5wh4v5b" class="animable" fill="#fff" stroke="#2e353a" stroke-miterlimit="10" stroke-width=".5"/><circle cx="308.65" cy="277.95" r="1.18" style="transform-origin:308.65px 277.95px" id="elxm6rwhscwsd" class="animable" fill="#fff" stroke="#2e353a" stroke-miterlimit="10" stroke-width=".5"/><path d="M337.28 276.77a1.29 1.29 0 11-1.29-1.28 1.29 1.29 0 011.29 1.28z" style="transform-origin:335.99px 276.78px" id="el75nn9kwtx7f" class="animable" fill="#fff" stroke="#2e353a" stroke-miterlimit="10" stroke-width=".5"/><path d="M339.63 275.54a1.63 1.63 0 11-1.62-1.62 1.62 1.62 0 011.62 1.62z" style="transform-origin:338px 275.55px" id="elmmrd205a2i" class="animable" fill="#fff" stroke="#2e353a" stroke-miterlimit="10" stroke-width=".5"/><path d="M338.74 277.9a1.18 1.18 0 11-1.18-1.18 1.17 1.17 0 011.18 1.18z" style="transform-origin:337.56px 277.9px" id="ele8f07gnp6t" class="animable" fill="#fff" stroke="#2e353a" stroke-miterlimit="10" stroke-width=".5"/><path d="M322.94 274.42a1.29 1.29 0 11-1.29-1.29 1.29 1.29 0 011.29 1.29z" style="transform-origin:321.65px 274.42px" id="el6mtih1ay653" class="animable" fill="#fff" stroke="#2e353a" stroke-miterlimit="10" stroke-width=".5"/><path d="M325.29 273.19a1.63 1.63 0 11-1.63-1.63 1.62 1.62 0 011.63 1.63z" style="transform-origin:323.66px 273.19px" id="elj04mdbs09" class="animable" fill="#fff" stroke="#2e353a" stroke-miterlimit="10" stroke-width=".5"/><circle cx="323.22" cy="275.54" r="1.18" style="transform-origin:323.22px 275.54px" id="el0n9dqh7yrfqm" class="animable" fill="#fff" stroke="#2e353a" stroke-miterlimit="10" stroke-width=".5"/><circle cx="318.45" cy="272.96" r="1.29" style="transform-origin:318.45px 272.96px" id="elycjh6if3tza" class="animable" fill="#fff" stroke="#2e353a" stroke-miterlimit="10" stroke-width=".5"/><path d="M322.1 271.73a1.63 1.63 0 11-3.25 0 1.63 1.63 0 013.25 0z" style="transform-origin:320.475px 271.858px" id="el0mfqzlcxwg7q" class="animable" fill="#fff" stroke="#2e353a" stroke-miterlimit="10" stroke-width=".5"/><path d="M321.2 274.09a1.18 1.18 0 11-1.18-1.18 1.17 1.17 0 011.18 1.18z" style="transform-origin:320.02px 274.09px" id="elbpw40owkcpk" class="animable" fill="#fff" stroke="#2e353a" stroke-miterlimit="10" stroke-width=".5"/><path d="M328.54 274.09a1.29 1.29 0 11-1.29-1.29 1.28 1.28 0 011.29 1.29z" style="transform-origin:327.25px 274.09px" id="el46xc9rwymff" class="animable" fill="#fff" stroke="#2e353a" stroke-miterlimit="10" stroke-width=".5"/><circle cx="329.27" cy="272.85" r="1.62" style="transform-origin:329.27px 272.85px" id="elc1kndywnt3v" class="animable" fill="#fff" stroke="#2e353a" stroke-miterlimit="10" stroke-width=".5"/><circle cx="328.82" cy="275.21" r="1.18" style="transform-origin:328.82px 275.21px" id="ellb8cnr22adb" class="animable" fill="#fff" stroke="#2e353a" stroke-miterlimit="10" stroke-width=".5"/><path d="M333.13 273.75a1.29 1.29 0 11.74 1.67 1.29 1.29 0 01-.74-1.67z" style="transform-origin:334.333px 274.216px" id="elq7que6dbqh" class="animable" fill="#fff" stroke="#2e353a" stroke-miterlimit="10" stroke-width=".5"/><path d="M330.49 274a1.63 1.63 0 11.93 2.11 1.63 1.63 0 01-.93-2.11z" style="transform-origin:332.009px 274.59px" id="elsyllz1o0gj" class="animable" fill="#fff" stroke="#2e353a" stroke-miterlimit="10" stroke-width=".5"/><path d="M332.19 272.18a1.16 1.16 0 011.52-.67 1.18 1.18 0 11-1.52.67z" style="transform-origin:333.288px 272.609px" id="elai0vtevdyz" class="animable" fill="#fff" stroke="#2e353a" stroke-miterlimit="10" stroke-width=".5"/><path d="M335.39 275.83a1.29 1.29 0 11.73 1.67 1.29 1.29 0 01-.73-1.67z" style="transform-origin:336.592px 276.299px" id="elyqckcxvpgt" class="animable" fill="#fff" stroke="#2e353a" stroke-miterlimit="10" stroke-width=".5"/><path d="M332.75 276.12a1.63 1.63 0 11.92 2.11 1.63 1.63 0 01-.92-2.11z" style="transform-origin:334.268px 276.714px" id="el6gb4hiivekv" class="animable" fill="#fff" stroke="#2e353a" stroke-miterlimit="10" stroke-width=".5"/><path d="M334.44 274.26a1.17 1.17 0 11.67 1.52 1.17 1.17 0 01-.67-1.52z" style="transform-origin:335.529px 274.688px" id="eloc0y7djnfo" class="animable" fill="#fff" stroke="#2e353a" stroke-miterlimit="10" stroke-width=".5"/><path d="M316.11 273.37a1.28 1.28 0 011.67-.73 1.29 1.29 0 01-.94 2.4 1.29 1.29 0 01-.73-1.67z" style="transform-origin:317.284px 273.829px" id="elutsga7ua2k" class="animable" fill="#fff" stroke="#2e353a" stroke-miterlimit="10" stroke-width=".5"/><path d="M313.47 273.66a1.63 1.63 0 11.93 2.1 1.62 1.62 0 01-.93-2.1z" style="transform-origin:314.991px 274.242px" id="el89mrin1hqzf" class="animable" fill="#fff" stroke="#2e353a" stroke-miterlimit="10" stroke-width=".5"/><path d="M315.16 271.79a1.18 1.18 0 012.2.86 1.18 1.18 0 01-2.2-.86z" style="transform-origin:316.26px 272.22px" id="elfaybgctq7vs" class="animable" fill="#fff" stroke="#2e353a" stroke-miterlimit="10" stroke-width=".5"/><path d="M323.61 277.06a1.29 1.29 0 11-1.29-1.29 1.28 1.28 0 011.29 1.29z" style="transform-origin:322.32px 277.06px" id="el5z2va9po8hf" class="animable" fill="#fff" stroke="#2e353a" stroke-miterlimit="10" stroke-width=".5"/><path d="M326 275.82a1.63 1.63 0 11-1.62-1.62 1.63 1.63 0 011.62 1.62z" style="transform-origin:324.37px 275.83px" id="elalj13od7oda" class="animable" fill="#fff" stroke="#2e353a" stroke-miterlimit="10" stroke-width=".5"/><circle cx="323.89" cy="278.18" r="1.18" style="transform-origin:323.89px 278.18px" id="elqfk2w1g1838" class="animable" fill="#fff" stroke="#2e353a" stroke-miterlimit="10" stroke-width=".5"/><path d="M312.09 277.9a1.29 1.29 0 11.55-1.74 1.28 1.28 0 01-.55 1.74z" style="transform-origin:311.497px 276.755px" id="elhngtsh8sb1" class="animable" fill="#fff" stroke="#2e353a" stroke-miterlimit="10" stroke-width=".5"/><path d="M314.28 279.42a1.63 1.63 0 11-1.51-2.88 1.63 1.63 0 011.51 2.88z" style="transform-origin:313.423px 278.033px" id="elji92d0dzy6" class="animable" fill="#fff" stroke="#2e353a" stroke-miterlimit="10" stroke-width=".5"/><path d="M311.77 279.71a1.18 1.18 0 11.5-1.59 1.17 1.17 0 01-.5 1.59z" style="transform-origin:311.225px 278.664px" id="elcba5om30l1t" class="animable" fill="#fff" stroke="#2e353a" stroke-miterlimit="10" stroke-width=".5"/><path d="M314.35 275.43a1.29 1.29 0 11.55-1.74 1.29 1.29 0 01-.55 1.74z" style="transform-origin:313.755px 274.285px" id="elz7du7ai60ah" class="animable" fill="#fff" stroke="#2e353a" stroke-miterlimit="10" stroke-width=".5"/><path d="M316.53 277a1.62 1.62 0 01-1.5-2.88 1.62 1.62 0 111.5 2.88z" style="transform-origin:315.783px 275.558px" id="elnbyv7n47epm" class="animable" fill="#fff" stroke="#2e353a" stroke-miterlimit="10" stroke-width=".5"/><path d="M314 277.24a1.17 1.17 0 11.5-1.59 1.17 1.17 0 01-.5 1.59z" style="transform-origin:313.467px 276.199px" id="elfomt9m1vlp4" class="animable" fill="#fff" stroke="#2e353a" stroke-miterlimit="10" stroke-width=".5"/><path d="M332.39 276.55a1.29 1.29 0 11.55-1.74 1.28 1.28 0 01-.55 1.74z" style="transform-origin:331.797px 275.405px" id="elleeagzp6ca" class="animable" fill="#fff" stroke="#2e353a" stroke-miterlimit="10" stroke-width=".5"/><path d="M334.58 278.07a1.63 1.63 0 11.69-2.19 1.64 1.64 0 01-.69 2.19z" style="transform-origin:333.82px 276.627px" id="el0gv91q4bc0mm" class="animable" fill="#fff" stroke="#2e353a" stroke-miterlimit="10" stroke-width=".5"/><path d="M332.08 278.36a1.17 1.17 0 11.49-1.59 1.18 1.18 0 01-.49 1.59z" style="transform-origin:331.537px 277.323px" id="elvptiq5whlc" class="animable" fill="#fff" stroke="#2e353a" stroke-miterlimit="10" stroke-width=".5"/><path d="M319.92 278.64a1.29 1.29 0 11.55-1.74 1.29 1.29 0 01-.55 1.74z" style="transform-origin:319.326px 277.495px" id="el9osszbadzrk" class="animable" fill="#fff" stroke="#2e353a" stroke-miterlimit="10" stroke-width=".5"/><g id="eliuf3oxt52c"><circle cx="321.35" cy="278.71" r="1.62" style="transform-origin:321.35px 278.71px" class="animable" id="elhifq1ada93b" fill="#fff" stroke="#2e353a" stroke-miterlimit="10" stroke-width=".5" transform="rotate(-24.34)"/></g><path d="M319.6 280.45a1.18 1.18 0 01-1.09-2.09 1.18 1.18 0 111.09 2.09z" style="transform-origin:319.106px 279.378px" id="elvyixs6nmuc" class="animable" fill="#fff" stroke="#2e353a" stroke-miterlimit="10" stroke-width=".5"/><path d="M316 277.52a1.29 1.29 0 11-1.19-2.29 1.29 1.29 0 011.19 2.29z" style="transform-origin:315.402px 276.377px" id="el8a5fw2do0yl" class="animable" fill="#fff" stroke="#2e353a" stroke-miterlimit="10" stroke-width=".5"/><path d="M318.18 279a1.62 1.62 0 11.69-2.19 1.61 1.61 0 01-.69 2.19z" style="transform-origin:317.437px 277.562px" id="elz9kdse0o1ed" class="animable" fill="#fff" stroke="#2e353a" stroke-miterlimit="10" stroke-width=".5"/><path d="M315.68 279.33a1.18 1.18 0 11.5-1.59 1.18 1.18 0 01-.5 1.59z" style="transform-origin:315.133px 278.284px" id="ell3i4uspx2m" class="animable" fill="#fff" stroke="#2e353a" stroke-miterlimit="10" stroke-width=".5"/><path d="M319.15 275.55a1.29 1.29 0 11.55-1.74 1.28 1.28 0 01-.55 1.74z" style="transform-origin:318.557px 274.405px" id="elvqngcu8rjid" class="animable" fill="#fff" stroke="#2e353a" stroke-miterlimit="10" stroke-width=".5"/><path d="M321.33 277.07a1.62 1.62 0 11.69-2.2 1.63 1.63 0 01-.69 2.2z" style="transform-origin:320.587px 275.629px" id="elk84nbk23msa" class="animable" fill="#fff" stroke="#2e353a" stroke-miterlimit="10" stroke-width=".5"/><path d="M318.83 277.36a1.18 1.18 0 11.5-1.59 1.18 1.18 0 01-.5 1.59z" style="transform-origin:318.283px 276.314px" id="elkyxpiau43n9" class="animable" fill="#fff" stroke="#2e353a" stroke-miterlimit="10" stroke-width=".5"/><path d="M311.53 274.12a1.29 1.29 0 11.55-1.74 1.29 1.29 0 01-.55 1.74z" style="transform-origin:310.935px 272.975px" id="elhbzz6z72e4q" class="animable" fill="#fff" stroke="#2e353a" stroke-miterlimit="10" stroke-width=".5"/><g id="elz0jo6zpel7"><circle cx="312.96" cy="274.2" r="1.62" style="transform-origin:312.96px 274.2px" class="animable" id="elxdqepwi5un" fill="#fff" stroke="#2e353a" stroke-miterlimit="10" stroke-width=".5" transform="rotate(-24.34)"/></g><path d="M311.21 275.93a1.17 1.17 0 01-1.09-2.08 1.17 1.17 0 111.09 2.08z" style="transform-origin:310.67px 274.888px" id="el27xq5lsbuic" class="animable" fill="#fff" stroke="#2e353a" stroke-miterlimit="10" stroke-width=".5"/><path d="M327.67 276.11a1.29 1.29 0 11-1.19-2.28 1.27 1.27 0 011.73.54 1.29 1.29 0 01-.54 1.74z" style="transform-origin:327.026px 274.993px" id="elya7c9w5jx9e" class="animable" fill="#fff" stroke="#2e353a" stroke-miterlimit="10" stroke-width=".5"/><path d="M329.85 277.63a1.63 1.63 0 01-2.19-.69 1.63 1.63 0 012.88-1.51 1.64 1.64 0 01-.69 2.2z" style="transform-origin:329.123px 276.234px" id="el86j3a0gr7o3" class="animable" fill="#fff" stroke="#2e353a" stroke-miterlimit="10" stroke-width=".5"/><path d="M327.35 277.92a1.18 1.18 0 11.5-1.59 1.18 1.18 0 01-.5 1.59z" style="transform-origin:326.803px 276.874px" id="el06uzdv8goy6m" class="animable" fill="#fff" stroke="#2e353a" stroke-miterlimit="10" stroke-width=".5"/><path style="transform-origin:322.66px 289.59px" id="els75yhiwz8cm" class="animable" fill="#fff" stroke="#2e353a" stroke-miterlimit="10" d="M334.72 302.35H310.6l-5.17-25.52h34.46l-5.17 25.52z"/><path style="transform-origin:327.205px 289.59px" id="el0t0szdbpk5k" class="animable" fill="#2e353a" d="M321.81 302.35l17.57-25.52h-7.2l-17.15 25.52h6.78z"/><path style="transform-origin:317.345px 288.645px" id="elivuytvl0559" class="animable" fill="#2e353a" d="M310.21 300.46l16.03-23.63h-8.27l-9.52 14.93 1.76 8.7z"/><path d="M353.46 298.21s-25.68-1.63-38-2.6-21.13-4.88-25 .65S266 369.4 266 369.4l-2.26 4.6s11.05 8.13 13.33 8.13 12-34.46 17.88-40.64S305 320.31 305 320.31h45.19z" style="transform-origin:308.6px 337.746px" id="el3k486z56lou" class="animable" fill="#fff"/><g style="transform-origin:311.725px 340.69px" id="elp4f51wizx7n" class="animable" clip-path="url(#freepik--clip-path-4--inject-1--inject-31)"><path d="M312 303.67a21.24 21.24 0 00-4.33 3.66s-3.34-7.33-4.34-4.66 1.34 8.33 1.34 8.33-4.67-2.33-4.34.67a56.55 56.55 0 01.34 5.66s-5.67 12-9.67 21.34-15.67 36.66-17 41a5.46 5.46 0 00-.2 1 9.47 9.47 0 003.27 1.4c2.27 0 12-34.46 17.88-40.64S305 320.31 305 320.31h43.3c.64-1.45 1.13-2.55 1.35-3l-16-18s-18.25 1.94-21.65 4.36z" style="transform-origin:311.725px 340.69px" id="eljuz5bxofmoq" class="animable" fill="#62dafc"/><g id="elc6otq6jb28d"><path d="M312 303.67a21.24 21.24 0 00-4.33 3.66s-3.34-7.33-4.34-4.66 1.34 8.33 1.34 8.33-4.67-2.33-4.34.67a56.55 56.55 0 01.34 5.66s-5.67 12-9.67 21.34-15.67 36.66-17 41a5.46 5.46 0 00-.2 1 9.47 9.47 0 003.27 1.4c2.27 0 12-34.46 17.88-40.64S305 320.31 305 320.31h43.3c.64-1.45 1.13-2.55 1.35-3l-16-18s-18.25 1.94-21.65 4.36z" style="mix-blend-mode:multiply;transform-origin:311.725px 340.69px" class="animable" id="el99rgfl2bhu9" opacity=".3"/></g></g><path d="M353.46 298.21s-25.68-1.63-38-2.6-21.13-4.88-25 .65S266 369.4 266 369.4l-2.26 4.6s11.05 8.13 13.33 8.13 12-34.46 17.88-40.64S305 320.31 305 320.31h45.19z" style="transform-origin:308.6px 337.746px" id="elr1xxv0ry4l" class="animable" fill="none" stroke="#2e353a" stroke-miterlimit="10"/><path style="transform-origin:308.435px 315.6px" id="elfpu43dkdquw" class="animable" fill="none" stroke="#2e353a" stroke-linecap="round" stroke-linejoin="round" d="M308.6 310.89l-3.58 9.42 6.83-6.5"/><path d="M263.74 374s-9.1.33-11.7 0-9.11-3.57-10.41-1 4.23 6.82 8.45 10.07 16.91 7.48 20.81 8.13 6.18-9.1 6.18-9.1z" style="transform-origin:259.253px 381.624px" id="el3h42f9sh20z" class="animable" fill="#2e353a" stroke="#2e353a" stroke-miterlimit="10"/><path d="M273.72 389.79c-4.23-1.19-12.37-3.56-16.81-5.43s-11.64-8.49-15-11.77a1.84 1.84 0 00-.28.39c-1.3 2.6 4.23 6.82 8.45 10.07s16.91 7.48 20.81 8.13a3.12 3.12 0 002.83-1.39z" style="transform-origin:257.578px 381.889px" id="el7zyqzlz122a" class="animable" fill="#fff" stroke="#2e353a" stroke-miterlimit="10"/><path d="M390.13 259.2v36.41h-45.75c-10.25 0-18.55 7.64-18.55 17.06h0c0 9.43 8.3 17.07 18.55 17.07h.32a3.73 3.73 0 013.74 3.74v57h87.27V259.2c0-11.52-10.1-20.88-22.61-21h0c-12.66-.06-22.97 9.36-22.97 21z" style="transform-origin:380.77px 314.34px" id="elzmdb1raxw2g" class="animable" fill="#62dafc" stroke="#2e353a" stroke-linecap="round" stroke-linejoin="round"/><path d="M399.83 294v-17.14l-.31-8.62s-1.2-9-3.08-13.24a11.11 11.11 0 00-4.18-4.65 19.52 19.52 0 00-2.13 8.85V294z" style="transform-origin:394.98px 272.175px" id="elnomwt3zaj5" class="animable" fill="#2e353a"/><path d="M398.32 259.2v36.41h-42.1a17.06 17.06 0 00-17.06 17.06h0a17.06 17.06 0 0017.06 17.07h0a3.73 3.73 0 013.74 3.74v57h80.3V259.2a21 21 0 00-20.81-21h0a21 21 0 00-21.13 21z" style="transform-origin:389.71px 314.34px" id="elu22fe0dbla" class="animable" fill="#62dafc" stroke="#2e353a" stroke-linecap="round" stroke-linejoin="round"/><g id="elxm9czhz0rqp"><path d="M398.32 259.2v36.41h-42.1a17.06 17.06 0 00-17.06 17.06 17.06 17.06 0 0017.06 17.07 3.73 3.73 0 013.74 3.74v57h80.3V259.2a21 21 0 00-20.81-21 21 21 0 00-21.13 21z" style="transform-origin:389.71px 314.34px" class="animable" id="eljw8bd0ru3im" opacity=".3"/></g><path d="M379.14 260.58l6.59 29.74s2.88 6.37 9.22 5.64 9.55-9 7.6-13.44-12.44-34.37-12.44-34.37l-8-2" style="transform-origin:391.129px 271.084px" id="el55b13a8dz0k" class="animable" fill="#fff"/><g style="transform-origin:394.348px 270.68px" id="elcnsh5mmo82v" class="animable" clip-path="url(#freepik--clip-path-5--inject-1--inject-31)"><path d="M385.53 247.38a15 15 0 014.4 7.12c1 4.24 9.16 26.61 9 29.16s-6.45 3.39-6.45 3.39 4.68 3.57 5.43 5.25l.75 1.68s4.16-2.19 4.5-5.92a16.05 16.05 0 00-1.69-7.63l-11.35-32.28z" style="mix-blend-mode:multiply;transform-origin:394.348px 270.68px" id="eld3t633takil" class="animable" fill="#62dafc"/><g id="el1sn33i6mgjc"><path d="M385.53 247.38a15 15 0 014.4 7.12c1 4.24 9.16 26.61 9 29.16s-6.45 3.39-6.45 3.39 4.68 3.57 5.43 5.25l.75 1.68s4.16-2.19 4.5-5.92a16.05 16.05 0 00-1.69-7.63l-11.35-32.28z" style="mix-blend-mode:multiply;transform-origin:394.348px 270.68px" class="animable" id="el9u7wha6pxb7" opacity=".3"/></g></g><path d="M379.14 260.58l6.59 29.74s2.88 6.37 9.22 5.64 9.55-9 7.6-13.44-12.44-34.37-12.44-34.37l-8-2" style="transform-origin:391.129px 271.084px" id="el0jrmyj1vv3pu" class="animable" fill="none" stroke="#2e353a" stroke-linecap="round" stroke-linejoin="round"/><path d="M398.65 294s.2-4.38-5.16-6.58-7.33-.24-11.48 0a249.78 249.78 0 00-27 4.14c-7.08 1.71-12.15-1.32-14.1.87a14.86 14.86 0 00-2.68 4.15s31.65-.38 42.62-.87 16.58 1.44 17.8-1.71z" style="transform-origin:368.44px 291.483px" id="elhyfddzooz79" class="animable" fill="#fff"/><g style="transform-origin:375.21px 292.03px" id="elsu2sxcp578" class="animable" clip-path="url(#freepik--clip-path-6--inject-1--inject-31)"><path d="M394.34 288.06s.34 1-2.37 2.71-40.85 5.23-40.85 5.23H395s4.3-1.12 4.3-2.13-2.25-5.81-4.96-5.81z" style="mix-blend-mode:multiply;transform-origin:375.21px 292.03px" id="elu269iwuc3j" class="animable" fill="#62dafc"/><g id="elyto03v3z4wt"><path d="M394.34 288.06s.34 1-2.37 2.71-40.85 5.23-40.85 5.23H395s4.3-1.12 4.3-2.13-2.25-5.81-4.96-5.81z" style="mix-blend-mode:multiply;transform-origin:375.21px 292.03px" class="animable" id="ela886cjay5y" opacity=".3"/></g></g><path d="M398.65 294s.2-4.38-5.16-6.58-7.33-.24-11.48 0a249.78 249.78 0 00-27 4.14c-7.08 1.71-12.15-1.32-14.1.87a14.86 14.86 0 00-2.68 4.15s31.65-.38 42.62-.87 16.58 1.44 17.8-1.71z" style="transform-origin:368.44px 291.483px" id="el5tu0j11u5be" class="animable" fill="none" stroke="#2e353a" stroke-linecap="round" stroke-linejoin="round"/><path d="M272.37 272.5a1 1 0 01-.38-.08 1 1 0 01-.52-1.28l5.08-11.85a1 1 0 01.82-.59l9.87-.84a1 1 0 11.17 1.94l-9.3.8-4.84 11.31a1 1 0 01-.9.59z" style="transform-origin:279.976px 265.155px" id="elgdtahalufc9" class="animable" fill="#fff" stroke="#2e353a" stroke-miterlimit="10"/><path style="transform-origin:269.835px 282.36px" id="eli4hu56grnnb" class="animable" fill="#2e353a" stroke="#2e353a" stroke-miterlimit="10" d="M275.87 295.12H263.8l-2.58-25.52h17.23l-2.58 25.52z"/><path style="transform-origin:269.84px 269.695px" id="elqupeip3m1sh" class="animable" fill="#fff" stroke="#2e353a" stroke-miterlimit="10" d="M260.67 267.86h18.34v3.67h-18.34z"/><path d="M354.37 213.66s-2.66 15.36-1.77 20.09 4.72 9.15 12.4 8.86 11.23-8.86 11.23-8.86 7.38-.3 8.27-4.14-.89-6.5-2.95-6.5a17.31 17.31 0 00-5 1.18s-5.31-2.06-5-4.13 4.73-5.32 3.84-6.5-21.02 0-21.02 0z" style="transform-origin:368.576px 227.88px" id="el249ips77gup" class="animable" fill="#fff"/><g style="transform-origin:373.313px 227.871px" id="elvm43oda89n" class="animable" clip-path="url(#freepik--clip-path-7--inject-1--inject-31)"><path d="M384.5 229.61c.89-3.84-.89-6.5-2.95-6.5a17.31 17.31 0 00-5 1.18s-5.31-2.06-5-4.13 4.73-5.32 3.84-6.5c-.22-.3-1.71-.45-3.8-.5-.54 1.15-3.64 8.07-1.78 13 2 5.43 1.7 11-.51 13.23-1.94 1.94-6.38 2.83-7.41 3a16.81 16.81 0 003.16.18c7.68-.3 11.23-8.86 11.23-8.86s7.33-.26 8.22-4.1z" style="mix-blend-mode:multiply;transform-origin:373.313px 227.871px" id="eljfsszwnzf19" class="animable" fill="#62dafc"/><g id="elc13lq2mab69"><path d="M384.5 229.61c.89-3.84-.89-6.5-2.95-6.5a17.31 17.31 0 00-5 1.18s-5.31-2.06-5-4.13 4.73-5.32 3.84-6.5c-.22-.3-1.71-.45-3.8-.5-.54 1.15-3.64 8.07-1.78 13 2 5.43 1.7 11-.51 13.23-1.94 1.94-6.38 2.83-7.41 3a16.81 16.81 0 003.16.18c7.68-.3 11.23-8.86 11.23-8.86s7.33-.26 8.22-4.1z" style="mix-blend-mode:multiply;transform-origin:373.313px 227.871px" class="animable" id="elttf6f54vfbs" opacity=".3"/></g></g><path d="M354.37 213.66s-2.66 15.36-1.77 20.09 4.72 9.15 12.4 8.86 11.23-8.86 11.23-8.86 7.38-.3 8.27-4.14-.89-6.5-2.95-6.5a17.31 17.31 0 00-5 1.18s-5.31-2.06-5-4.13 4.73-5.32 3.84-6.5-21.02 0-21.02 0z" style="transform-origin:368.576px 227.88px" id="el7xedcuz6ulc" class="animable" fill="none" stroke="#2e353a" stroke-linecap="round" stroke-linejoin="round"/><path d="M354.67 228.43s7.08 3.54 13.58.29c0 0-.59 7.09-7.38 7.68s-6.2-7.97-6.2-7.97z" style="transform-origin:361.454px 232.43px" id="eljpiew0rywn" class="animable" fill="#2e353a" stroke="#2e353a" stroke-linecap="round" stroke-linejoin="round"/><path d="M359.69 221.34l-.3 1.77s-2.36 1.18-1.48 2.36a3 3 0 002.66.89" style="transform-origin:359.142px 223.87px" id="el87p7y0q5l3" class="animable" fill="none" stroke="#2e353a" stroke-linecap="round" stroke-linejoin="round"/><path d="M365.39 220.42c0 .85-.39 1.55-.87 1.55s-.88-.7-.88-1.55.39-1.56.88-1.56.87.7.87 1.56z" style="transform-origin:364.515px 220.415px" id="el3k3p6rvy67d" class="animable" fill="#2e353a"/><path d="M357.43 219.61c0 .85-.4 1.55-.88 1.55s-.88-.7-.88-1.55.4-1.56.88-1.56.88.7.88 1.56z" style="transform-origin:356.55px 219.605px" id="elxv0g13m9pgq" class="animable" fill="#2e353a"/><path d="M357.54 235.73a5.29 5.29 0 003.33.67 7.49 7.49 0 006.38-4.35c-5.6-.25-8.36 1.72-9.71 3.68z" style="transform-origin:362.395px 234.236px" id="el343hnkwqnuc" class="animable" fill="#fff" stroke="#2e353a" stroke-linecap="round" stroke-linejoin="round"/><path d="M363.82 215.43s3.51-2.59 4.32 1.45" style="transform-origin:365.98px 215.746px" id="elx3p35bgyjs" class="animable" fill="none" stroke="#2e353a" stroke-linecap="round" stroke-linejoin="round"/><path d="M358.85 215.8s-1.65-2.21-3.12-.19" style="transform-origin:357.29px 215.279px" id="el4mjptjkto3f" class="animable" fill="none" stroke="#2e353a" stroke-linecap="round" stroke-linejoin="round"/></g><g id="freepik--Device--inject-1--inject-31" class="animable" style="transform-origin:157.52px 305.295px;animation:1s 1 forwards cubic-bezier(.36,-.01,.5,1.38) slideLeft;animation-delay:0s"><path style="transform-origin:94.615px 314.22px" id="elg25o1yap6gf" class="animable" fill="#fff" stroke="#2e353a" stroke-linecap="round" stroke-linejoin="round" d="M90.77 319.82h-3.9l11.59-11.2h3.9l-11.59 11.2z"/><path style="transform-origin:91.935px 314.22px" id="elqyv6xf2jnxg" class="animable" fill="#2e353a" stroke="#2e353a" stroke-linecap="round" stroke-linejoin="round" d="M88.09 319.82h-3.9l11.59-11.2h3.9l-11.59 11.2z"/><path style="transform-origin:103.875px 314.22px" id="elemmh40bxj5a" class="animable" fill="#fff" stroke="#2e353a" stroke-linecap="round" stroke-linejoin="round" d="M107.72 319.82h3.9l-11.59-11.2h-3.9l11.59 11.2z"/><path style="transform-origin:106.565px 314.22px" id="el6pd7t28hcxv" class="animable" fill="#2e353a" stroke="#2e353a" stroke-linecap="round" stroke-linejoin="round" d="M110.41 319.82h3.9l-11.59-11.2h-3.9l11.59 11.2z"/><path style="transform-origin:205.795px 314.22px" id="elc8elytkkmb" class="animable" fill="#fff" stroke="#2e353a" stroke-linecap="round" stroke-linejoin="round" d="M201.95 319.82h-3.9l11.59-11.2h3.9l-11.59 11.2z"/><path style="transform-origin:203.11px 314.22px" id="elsjxh7wqdtut" class="animable" fill="#2e353a" stroke="#2e353a" stroke-linecap="round" stroke-linejoin="round" d="M199.26 319.82h-3.9l11.6-11.2h3.9l-11.6 11.2z"/><path style="transform-origin:215.055px 314.22px" id="eljfxauyu7ie" class="animable" fill="#2e353a" stroke="#2e353a" stroke-linecap="round" stroke-linejoin="round" d="M218.9 319.82h3.9l-11.59-11.2h-3.9l11.59 11.2z"/><path style="transform-origin:217.745px 314.22px" id="el00tzo2t13n2x" class="animable" fill="#fff" stroke="#2e353a" stroke-linecap="round" stroke-linejoin="round" d="M221.59 319.82h3.9l-11.59-11.2H210l11.59 11.2z"/><path style="transform-origin:159.725px 266.045px" id="eltavd078gut8" class="animable" fill="#2e353a" stroke="#2e353a" stroke-linecap="round" stroke-linejoin="round" d="M90.67 220.06h138.11v91.97H90.67z"/><path style="transform-origin:157.445px 266.045px" id="elxc1r6ymxgo9" class="animable" fill="#2e353a" stroke="#2e353a" stroke-linecap="round" stroke-linejoin="round" d="M88.39 220.06H226.5v91.97H88.39z"/><path style="transform-origin:153.665px 266.04px" id="elperp92xf5b" class="animable" fill="#2e353a" stroke="#2e353a" stroke-linecap="round" stroke-linejoin="round" d="M224.24 312.02v-91.96H86.13v1.28l-3.04 6.44v84.24h141.15z"/><path style="transform-origin:222.42px 266.04px" id="elmu0jcxqsg4" class="animable" fill="#2e353a" stroke="#2e353a" stroke-linecap="round" stroke-linejoin="round" d="M224.24 312.02v-91.96l-3.64 7.72v84.24h3.64z"/><path style="transform-origin:153.665px 223.92px" id="el710ev4htnkf" class="animable" fill="#fff" stroke="#2e353a" stroke-linecap="round" stroke-linejoin="round" d="M83.09 227.78H220.6l3.64-7.72H86.13l-3.04 7.72z"/><path style="transform-origin:150.25px 301.25px" id="elmyy6tb44o5o" class="animable" fill="none" stroke="#fff" stroke-linecap="round" stroke-linejoin="round" d="M89.5 301.25H211"/><path d="M185 293.37h-70.1a1.47 1.47 0 010-2.93H185a1.47 1.47 0 010 2.93z" style="transform-origin:149.95px 291.905px" id="eludfcjob8y5" class="animable" fill="#2e353a" stroke="#fff" stroke-linecap="round" stroke-linejoin="round"/><path style="transform-origin:148.08px 252.5px" id="el7n4876auvf8" class="animable" fill="none" stroke="#fff" stroke-linecap="round" stroke-linejoin="round" d="M112.72 268.23V234.9h70.72v35.2"/><path style="transform-origin:157.52px 357.86px" id="elp9bq1ukxb7l" class="animable" fill="#2e353a" stroke="#2e353a" stroke-linecap="round" stroke-linejoin="round" d="M70.28 325.19h174.48v65.34H70.28z"/><path style="transform-origin:212.855px 357.86px" id="el0td480p8p5r" class="animable" fill="#62dafc" stroke="#2e353a" stroke-linecap="round" stroke-linejoin="round" d="M180.96 325.19h63.79v65.34h-63.79z"/><g id="elxpe8xb9qh2r"><path style="mix-blend-mode:multiply;transform-origin:212.855px 357.86px" class="animable" id="el2vxg80jux3x" opacity=".3" d="M180.96 325.19h63.79v65.34h-63.79z"/></g><path style="transform-origin:157.52px 322.505px" id="elg5yuljkss9n" class="animable" fill="#2e353a" stroke="#2e353a" stroke-linecap="round" stroke-linejoin="round" d="M66.58 318.85h181.88v7.31H66.58z"/><path style="transform-origin:157.49px 327.005px" id="elrt0toy72w8r" class="animable" fill="#2e353a" stroke="#2e353a" stroke-linecap="round" stroke-linejoin="round" d="M70.38 323.35H244.6v7.31H70.38z"/><path style="transform-origin:217.985px 322.505px" id="elgahaff9j84q" class="animable" fill="#62dafc" stroke="#2e353a" stroke-linecap="round" stroke-linejoin="round" d="M187.51 318.85h60.95v7.31h-60.95z"/><g id="el5i36gqe1gew"><path style="mix-blend-mode:multiply;transform-origin:217.985px 322.505px" class="animable" id="elfqe2g2pmo8d" opacity=".3" d="M187.51 318.85h60.95v7.31h-60.95z"/></g></g><defs><clipPath id="freepik--clip-path--inject-1--inject-31"><path d="M346.47 247.9s-39.74 21.46-41.69 24.1-3.17 8 3.66 8.53 32.67-9.26 32.67-9.26z" fill="#fff" stroke="#2e353a" stroke-linecap="round" stroke-linejoin="round"/></clipPath><clipPath id="freepik--clip-path-2--inject-1--inject-31"><path d="M334.1 230.09l-2.2-1.6s-2-1.56-3-.34c0 0-3.17 11.95-3.66 13.41s-23.87 23.44-25.09 28.28a7.76 7.76 0 005.36 9.27c2.93.73 6.83-7.07 8.53-11s15.12-24.38 15.12-24.38a3.87 3.87 0 002.44 0 11.18 11.18 0 002.44-2.44l2.44-1c1.21-.48 4.14-5.36 4.38-6.09a.65.65 0 000-.22c-1.68-2.19-6.76-3.89-6.76-3.89z" fill="#fff" stroke="#2e353a" stroke-linecap="round" stroke-linejoin="round"/></clipPath><clipPath id="freepik--clip-path-3--inject-1--inject-31"><path d="M291.7 300.16s-23.09-2-27.64-.65-5.2 7.15-3.9 11.38S276.09 378 276.09 378l13.65-3.58-7.47-47.24z" fill="#fff" stroke="#2e353a" stroke-miterlimit="10"/></clipPath><clipPath id="freepik--clip-path-4--inject-1--inject-31"><path d="M353.46 298.21s-25.68-1.63-38-2.6-21.13-4.88-25 .65S266 369.4 266 369.4l-2.26 4.6s11.05 8.13 13.33 8.13 12-34.46 17.88-40.64S305 320.31 305 320.31h45.19z" fill="#fff" stroke="#2e353a" stroke-miterlimit="10"/></clipPath><clipPath id="freepik--clip-path-5--inject-1--inject-31"><path d="M379.14 260.58l6.59 29.74s2.88 6.37 9.22 5.64 9.55-9 7.6-13.44-12.44-34.37-12.44-34.37l-8-2" fill="#fff" stroke="#2e353a" stroke-linecap="round" stroke-linejoin="round"/></clipPath><clipPath id="freepik--clip-path-6--inject-1--inject-31"><path d="M398.65 294s.2-4.38-5.16-6.58-7.33-.24-11.48 0a249.78 249.78 0 00-27 4.14c-7.08 1.71-12.15-1.32-14.1.87a14.86 14.86 0 00-2.68 4.15s31.65-.38 42.62-.87 16.58 1.44 17.8-1.71z" fill="#fff" stroke="#2e353a" stroke-linecap="round" stroke-linejoin="round"/></clipPath><clipPath id="freepik--clip-path-7--inject-1--inject-31"><path d="M354.37 213.66s-2.66 15.36-1.77 20.09 4.72 9.15 12.4 8.86 11.23-8.86 11.23-8.86 7.38-.3 8.27-4.14-.89-6.5-2.95-6.5a17.31 17.31 0 00-5 1.18s-5.31-2.06-5-4.13 4.73-5.32 3.84-6.5-21.02 0-21.02 0z" fill="#fff" stroke="#2e353a" stroke-linecap="round" stroke-linejoin="round"/></clipPath></defs><defs><filter id="active" height="200%"><feMorphology in="SourceAlpha" result="DILATED" operator="dilate" radius="2"/><feFlood flood-color="#32DFEC" flood-opacity="1" result="PINK"/><feComposite in="PINK" in2="DILATED" operator="in" result="OUTLINE"/><feMerge><feMergeNode in="OUTLINE"/><feMergeNode in="SourceGraphic"/></feMerge></filter><filter id="hover" height="200%"><feMorphology in="SourceAlpha" result="DILATED" operator="dilate" radius="2"/><feFlood flood-color="red" flood-opacity=".5" result="PINK"/><feComposite in="PINK" in2="DILATED" operator="in" result="OUTLINE"/><feMerge><feMergeNode in="OUTLINE"/><feMergeNode in="SourceGraphic"/></feMerge><feColorMatrix values="0 0 0 0 0 0 1 0 0 0 0 0 0 0 0 0 0 0 1 0"/></filter></defs></svg>